<?xml version="1.0" standalone="no"?>
<!DOCTYPE svg PUBLIC "-//W3C//DTD SVG 20010904//EN"
 "http://www.w3.org/TR/2001/REC-SVG-20010904/DTD/svg10.dtd">
<svg version="1.0" xmlns="http://www.w3.org/2000/svg"
 width="1536.000000pt" height="1024.000000pt" viewBox="0 0 1536.000000 1024.000000"
 preserveAspectRatio="xMidYMid meet">

<g transform="translate(0.000000,1024.000000) scale(0.100000,-0.100000)"
fill="#000000" stroke="none">
<path d="M3259 6705 c-290 -58 -536 -283 -640 -583 l-34 -97 0 -925 0 -925 28
-88 c93 -298 307 -504 612 -589 l80 -23 960 -2 c834 -2 970 0 1040 13 358 70
631 348 694 708 7 39 11 359 11 907 0 689 -3 861 -14 921 -52 270 -235 504
-490 624 -155 73 -80 68 -1186 71 -794 1 -1008 -1 -1061 -12z m1226 -461 c95
-22 256 -101 333 -164 90 -74 167 -171 217 -275 71 -146 77 -179 82 -448 l5
-238 37 -18 c54 -28 88 -66 95 -109 3 -20 6 -243 6 -495 0 -502 0 -502 -59
-527 -19 -7 -61 -11 -110 -9 -67 4 -83 8 -105 28 l-26 24 0 408 c0 426 -2 452
-43 465 -36 12 -106 85 -117 123 -5 20 -10 137 -10 261 0 170 -4 240 -15 285
-78 298 -424 449 -705 309 -80 -40 -174 -134 -209 -210 -49 -103 -53 -128 -58
-391 -6 -289 -5 -284 -97 -353 l-56 -41 0 -408 c0 -254 -4 -419 -10 -438 -17
-47 -56 -63 -153 -63 -78 0 -88 2 -116 26 l-32 26 3 510 3 510 32 26 c17 15
46 36 65 47 l33 20 6 245 c3 135 12 265 18 290 6 25 34 91 61 147 42 85 65
117 139 195 211 221 497 309 786 242z m-44 -854 c18 -10 19 -24 19 -272 0
-229 2 -264 17 -280 14 -16 34 -18 187 -18 94 0 178 -5 186 -10 12 -7 16 -37
18 -135 5 -184 16 -175 -203 -175 -144 0 -176 -3 -189 -16 -14 -13 -16 -47
-16 -213 0 -140 -3 -200 -12 -209 -8 -8 -58 -12 -158 -12 -100 0 -150 4 -158
12 -9 9 -12 70 -12 213 0 143 -3 204 -12 213 -8 8 -62 12 -178 12 -128 0 -171
3 -186 14 -17 13 -19 29 -22 146 -3 92 0 135 8 146 10 11 46 14 183 14 145 0
173 3 189 17 17 15 18 37 18 274 0 221 2 260 16 273 12 13 41 16 150 16 75 0
144 -5 155 -10z"/>
<path d="M9285 5904 c-86 -12 -179 -40 -255 -77 -69 -33 -101 -57 -170 -127
-144 -144 -193 -275 -194 -520 -2 -251 46 -383 188 -525 64 -63 100 -90 168
-124 216 -106 502 -107 748 -2 l85 36 3 348 2 347 -257 -2 -258 -3 -3 -112 -3
-113 129 0 129 0 6 -37 c3 -21 4 -90 2 -153 l-5 -115 -37 -15 c-26 -10 -78
-14 -168 -15 -127 0 -132 1 -196 32 -39 19 -84 52 -109 79 -87 95 -137 262
-125 421 17 232 116 371 299 419 68 18 237 18 309 -1 59 -15 161 -62 210 -97
l28 -20 -3 143 -3 144 -40 22 c-72 39 -190 64 -325 68 -69 2 -138 1 -155 -1z"/>
<path d="M6650 5185 l0 -705 140 0 140 0 0 295 0 295 315 0 315 0 0 -295 0
-295 140 0 140 0 0 705 0 705 -140 0 -140 0 0 -290 0 -290 -315 0 -315 0 0
290 0 290 -140 0 -140 0 0 -705z"/>
<path d="M11450 5798 c-30 -4 -88 -13 -127 -19 l-73 -12 0 -123 0 -124 -75 0
-75 0 0 -110 0 -110 74 0 74 0 4 -322 3 -323 28 -58 c29 -59 74 -98 147 -128
44 -18 247 -18 308 -1 l42 13 0 104 0 104 -78 -6 c-93 -7 -145 7 -170 45 -15
23 -17 62 -20 309 l-4 283 136 0 136 0 0 100 0 99 -132 3 -133 3 -5 140 -5
140 -55 -7z"/>
<path d="M10420 5541 c-78 -11 -165 -38 -233 -72 -50 -26 -58 -34 -54 -52 3
-12 11 -61 18 -109 7 -49 15 -88 19 -88 4 0 13 7 20 15 25 30 170 76 259 82
102 6 159 -7 203 -46 29 -26 33 -35 36 -100 l4 -71 -138 0 c-269 -1 -407 -58
-475 -199 -19 -37 -23 -64 -23 -136 -1 -81 2 -96 29 -150 34 -67 102 -127 170
-148 22 -6 83 -12 135 -12 86 0 101 3 162 32 37 17 87 50 112 73 l46 43 0 -62
0 -61 133 0 132 0 -3 372 c-1 205 -7 396 -13 424 -21 106 -108 198 -226 239
-76 27 -223 39 -313 26z m270 -688 l0 -86 -40 -38 c-72 -69 -189 -86 -265 -39
-39 24 -55 58 -55 114 0 95 77 132 273 135 l87 1 0 -87z"/>
<path d="M12310 5544 c-151 -25 -231 -62 -310 -143 -102 -105 -144 -225 -144
-416 -1 -84 5 -142 18 -193 43 -168 176 -293 354 -331 85 -18 246 -14 339 9
107 25 206 74 199 98 -3 9 -10 53 -17 97 -6 44 -13 81 -14 83 -1 1 -26 -9 -56
-22 -85 -39 -166 -57 -267 -58 -81 0 -99 3 -147 27 -38 18 -65 40 -85 70 -29
42 -62 142 -53 158 2 4 158 7 345 7 l341 0 -6 133 c-6 155 -28 236 -85 317
-45 65 -126 123 -202 144 -59 16 -169 27 -210 20z m129 -229 c43 -22 79 -70
96 -127 28 -95 44 -88 -200 -88 l-215 0 6 28 c23 105 63 167 124 191 39 15
157 13 189 -4z"/>
<path d="M8030 5045 l0 -105 240 0 240 0 0 105 0 105 -240 0 -240 0 0 -105z"/>
</g>
</svg>
